<svg width="155" height="50" viewBox="0 0 155 50" fill="none" xmlns="http://www.w3.org/2000/svg">
<g clip-path="url(#clip0_342_16730)">
<path fill-rule="evenodd" clip-rule="evenodd" d="M47.1544 2.19141H32.043V16.18H47.1544H62.2657V2.19141H47.1544Z" fill="#44C7F3"/>
<path fill-rule="evenodd" clip-rule="evenodd" d="M47.1544 32.6406H32.043V46.6254H47.1544H62.2657V32.6406H47.1544Z" fill="#44C7F3"/>
<path fill-rule="evenodd" clip-rule="evenodd" d="M47.1544 17.416H32.043V31.4046H47.1544H62.2657V17.416H47.1544Z" fill="#44C7F3"/>
<path fill-rule="evenodd" clip-rule="evenodd" d="M16.5366 0L8.47338 20.8779L0.410156 41.7557L14.6133 46.626L22.6766 25.7481L30.7398 4.87023L16.5366 0Z" fill="#44C7F3"/>
<path fill-rule="evenodd" clip-rule="evenodd" d="M151.007 25.0109C151.587 25.0109 151.884 25.343 151.884 25.7896C151.884 26.7514 151.022 27.4804 149.408 27.4804C149.11 27.4804 148.687 27.4308 148.458 27.3812C148.843 26.156 149.828 25.0109 151.007 25.0109ZM154.582 29.4155C154.582 29.0186 154.239 28.6941 153.819 28.6941C153.548 28.6941 153.312 28.8277 153.174 29.03C153.174 29.03 153.174 29.0338 153.17 29.0415C153.147 29.0758 153.128 29.1102 153.113 29.1483C153.002 29.3354 152.743 29.7056 152.251 30.0376C151.812 30.3315 151.053 30.656 150.076 30.5605C149.026 30.4575 148.179 29.843 148.179 28.8163C148.179 28.7667 148.194 28.7018 148.194 28.6331C148.633 28.7323 149.267 28.7819 149.74 28.7819C152.289 28.7819 154.029 27.4575 154.029 25.7819C154.029 24.3086 152.835 23.5605 151.217 23.5605C148.141 23.5605 145.84 26.1789 145.84 28.9117C145.84 30.9155 147.351 31.8926 149.373 31.8926C150.713 31.8926 151.686 31.6483 152.461 31.2743C154.414 30.3315 154.548 29.6292 154.548 29.6292C154.571 29.5567 154.59 29.4842 154.59 29.4079" fill="#333E48"/>
<path fill-rule="evenodd" clip-rule="evenodd" d="M80.0107 6.54102L77.6562 17.0257H85.1433L85.4943 15.4189H80.4496L81.1174 12.4723H84.9143L85.2654 10.8807H81.4684L82.1019 8.14789H86.7422L87.0932 6.54102H80.0107Z" fill="#333E48"/>
<path fill-rule="evenodd" clip-rule="evenodd" d="M100.66 17.0957C101.557 16.9964 102.328 16.8132 102.805 16.4163L102.648 17.0117C102.473 17.6567 102.175 18.2712 101.717 18.6834C101.313 19.046 100.698 19.2636 100.03 19.2636C99.1528 19.2636 98.5384 18.901 98.5384 18.2521C98.5384 17.5079 99.1375 17.2598 100.664 17.0918L100.66 17.0957ZM103.438 10.2369C103.721 10.2369 103.999 10.2865 104.175 10.3857L103.419 13.6987C103.278 14.2789 103.068 14.775 102.77 15.0918C102.419 15.4544 101.98 15.6376 101.45 15.6376C100.714 15.6376 100.202 15.1567 100.202 14.1949C100.202 12.3743 101.45 10.2369 103.434 10.2369H103.438ZM89.6051 17.027L90.4294 13.401C90.6583 12.3896 90.8682 11.7292 91.2193 11.2483C91.5704 10.7674 92.0817 10.4697 92.677 10.4697C93.0128 10.4697 93.2914 10.5689 93.4669 10.7331C93.6424 10.8972 93.7302 11.13 93.7302 11.4277C93.7302 11.6605 93.6768 11.9888 93.589 12.3896L93.0281 14.9239C92.9403 15.2865 92.906 15.5842 92.906 15.817C92.906 16.7789 93.5928 17.1758 94.5239 17.1758C95.0963 17.1758 96.6533 16.9506 98.1224 15.6071C98.256 15.8972 98.4277 16.1491 98.6376 16.3476C97.2867 16.6644 96.5808 17.3399 96.5808 18.3018C96.5808 19.6911 98.0232 20.5384 99.9923 20.5384C101.66 20.5384 102.999 19.9926 103.824 19.1147C104.51 18.3705 104.93 17.3934 105.247 15.985L106.827 8.99642H104.644C104.644 8.99642 103.877 8.84757 103.381 8.84757C100.252 8.84757 97.8439 11.3819 97.8439 14.2979C97.8439 14.485 97.8591 14.6644 97.8897 14.8399C97.0043 15.5346 95.8672 15.7216 95.684 15.7216C95.4207 15.7216 95.2795 15.6071 95.2795 15.3896C95.2795 15.2903 95.3138 15.1071 95.3482 14.943L95.9091 12.4583C96.016 11.9621 96.119 11.4812 96.119 11.0651C96.119 9.64146 95.0276 8.84375 93.4822 8.84375C92.2153 8.84375 91.162 9.45825 90.582 10.2178L90.8529 8.9926H87.9299L87.5788 10.5499H88.7198L87.2773 17.027H89.5975H89.6051Z" fill="#333E48"/>
<path fill-rule="evenodd" clip-rule="evenodd" d="M108.911 17.1762C109.525 17.1762 110.105 17.0121 110.563 16.7449L110.846 15.4854C110.617 15.5999 110.3 15.7182 110.071 15.7182C109.808 15.7182 109.667 15.6037 109.667 15.3862C109.667 15.2869 109.701 15.1037 109.735 14.9396L111.807 5.69531H108.346L107.995 7.25256H109.136L107.415 14.9205C107.327 15.2831 107.293 15.5846 107.293 15.8136C107.293 16.7755 107.976 17.1724 108.911 17.1724" fill="#333E48"/>
<path fill-rule="evenodd" clip-rule="evenodd" d="M115.413 8.03437C116.222 8.03437 117.031 7.33971 117.031 6.56108C117.031 5.98093 116.573 5.58398 115.978 5.58398C115.169 5.58398 114.379 6.27864 114.379 7.05727C114.379 7.63742 114.818 8.03437 115.417 8.03437" fill="#333E48"/>
<path fill-rule="evenodd" clip-rule="evenodd" d="M112.813 14.9236C112.725 15.2862 112.691 15.5877 112.691 15.8168C112.691 16.7786 113.377 17.1755 114.309 17.1755C114.923 17.1755 115.503 17.0114 115.961 16.7442L116.243 15.4847C116.014 15.5992 115.698 15.7175 115.469 15.7175C115.205 15.7175 115.064 15.603 115.064 15.3855C115.064 15.2862 115.098 15.103 115.133 14.9389L116.468 8.99232H113.007L112.656 10.5496H113.797L112.813 14.9236Z" fill="#333E48"/>
<path fill-rule="evenodd" clip-rule="evenodd" d="M124.235 14.4276C124.235 13.2024 123.269 12.6719 122.056 12.2063C121.002 11.7902 120.564 11.5765 120.564 11.1452C120.564 10.6299 121.178 10.2673 122.147 10.2673C122.868 10.2673 123.781 10.4811 124.414 10.8131L124.746 9.35511C124.147 9.0574 123.113 8.83984 122.25 8.83984C120.018 8.83984 118.366 9.95053 118.366 11.5574C118.366 12.8666 119.438 13.3627 120.457 13.7444C121.563 14.1414 122.021 14.3742 122.021 14.836C122.021 15.3513 121.407 15.7292 120.369 15.7292C119.56 15.7292 118.541 15.4811 117.805 14.9849L117.473 16.4925C118.228 16.9391 119.247 17.1719 120.266 17.1719C122.64 17.1719 124.238 16.1452 124.238 14.4238" fill="#333E48"/>
<path fill-rule="evenodd" clip-rule="evenodd" d="M80.0107 21.2676L77.6562 31.7561H85.0746L85.4218 30.1493H80.4496L82.453 21.2676H80.0107Z" fill="#333E48"/>
<path fill-rule="evenodd" clip-rule="evenodd" d="M139.665 31.8204C140.562 31.7212 141.333 31.538 141.81 31.1411L141.653 31.7365C141.478 32.3815 141.18 32.996 140.722 33.4082C140.318 33.7708 139.703 33.9884 139.036 33.9884C138.158 33.9884 137.544 33.6258 137.544 32.9769C137.544 32.2327 138.143 31.9846 139.669 31.8166L139.665 31.8204ZM142.443 24.9617C142.726 24.9617 143.004 25.0113 143.18 25.1105L142.424 28.4235C142.283 29.0037 142.073 29.4998 141.776 29.8166C141.424 30.1792 140.986 30.3624 140.455 30.3624C139.719 30.3624 139.207 29.8815 139.207 28.9197C139.207 27.0991 140.455 24.9617 142.44 24.9617H142.443ZM132.648 28.4998C132.506 29.0953 132.316 29.6105 131.999 29.9579C131.682 30.2899 131.278 30.4884 130.717 30.4884C129.927 30.4884 129.522 29.9922 129.522 29.0456C129.522 27.3548 130.824 25.038 132.861 25.038C133.071 25.038 133.266 25.0876 133.407 25.1716L132.651 28.4998H132.648ZM136.078 23.7212L133.628 23.7098C133.628 23.7098 133.575 23.7021 133.548 23.6983C133.338 23.6678 133.121 23.6487 132.911 23.6487C129.713 23.6487 127.164 26.0838 127.164 29.1143C127.164 30.8853 128.236 31.9808 129.992 31.9808C131.011 31.9808 131.869 31.6067 132.373 31.0914C132.533 31.5037 132.88 31.7403 133.342 31.8395C133.399 31.8548 133.457 31.8624 133.518 31.8701C133.544 31.8739 133.575 31.8777 133.605 31.8815C133.701 31.893 133.796 31.9121 133.895 31.9121C134.269 31.9121 134.628 31.8433 134.956 31.7365C135.609 31.5647 136.426 31.2174 137.238 30.5456C137.353 30.7441 137.486 30.9273 137.647 31.0762C136.296 31.393 135.59 32.0685 135.59 33.0304C135.59 34.4197 137.032 35.267 139.001 35.267C140.669 35.267 142.008 34.7212 142.833 33.8433C143.519 33.0991 143.939 32.122 144.256 30.7136L145.836 23.725H143.653C143.653 23.725 142.886 23.5762 142.39 23.5762C139.261 23.5762 136.853 26.1105 136.853 29.0266C136.853 29.2899 136.887 29.5418 136.941 29.7785C136.12 30.2937 135.212 30.4426 135.048 30.4426C134.838 30.4426 134.708 30.3662 134.666 30.225C134.659 30.1945 134.651 30.164 134.651 30.1258C134.651 30.0266 134.685 29.8433 134.72 29.6792L136.078 23.725V23.7212Z" fill="#333E48"/>
<path fill-rule="evenodd" clip-rule="evenodd" d="M92.5375 25.0376C92.7474 25.0376 92.942 25.0873 93.0832 25.1712L92.3276 28.4995C92.1864 29.0949 91.9956 29.6102 91.6789 29.9575C91.3622 30.2896 90.9577 30.488 90.3967 30.488C89.6068 30.488 89.2023 29.9918 89.2023 29.0453C89.2023 27.3544 90.5036 25.0376 92.5413 25.0376M110.24 31.8201C111.137 31.7209 111.908 31.5376 112.385 31.1407L112.224 31.7361C112.049 32.3812 111.751 32.9957 111.293 33.4079C110.889 33.7705 110.274 33.988 109.606 33.988C108.729 33.988 108.114 33.6216 108.114 32.9766C108.114 32.2323 108.714 31.9842 110.24 31.8163M113.018 24.9575C113.3 24.9575 113.579 25.0071 113.754 25.1063L112.999 28.4193C112.858 28.9995 112.648 29.4957 112.35 29.8125C111.999 30.1789 111.56 30.3583 111.03 30.3583C110.293 30.3583 109.782 29.8773 109.782 28.9155C109.782 27.0949 111.03 24.9575 113.014 24.9575M89.6717 31.9728C90.6906 31.9728 91.5492 31.5987 92.0529 31.0834C92.2131 31.4957 92.5604 31.7323 93.0221 31.8315C93.0794 31.8468 93.1366 31.8544 93.1977 31.8621C93.2244 31.8659 93.2549 31.8697 93.2854 31.8735C93.3808 31.885 93.4762 31.9041 93.5755 31.9041C93.9494 31.9041 94.3081 31.8354 94.6363 31.7285C95.3575 31.5376 96.2886 31.1331 97.1854 30.3048L96.8648 31.7438H99.185L100.009 28.1178C100.238 27.1063 100.448 26.446 100.799 25.9651C101.15 25.4842 101.662 25.1865 102.257 25.1865C102.593 25.1865 102.871 25.2857 103.047 25.4499C103.222 25.6178 103.31 25.8468 103.31 26.1445C103.31 26.3773 103.257 26.7094 103.169 27.1063L102.608 29.6407C102.52 30.0033 102.486 30.3048 102.486 30.5338C102.486 31.4957 103.173 31.8926 104.104 31.8926C104.676 31.8926 106.233 31.6674 107.702 30.3239C107.836 30.6102 108.008 30.8659 108.217 31.0644C106.867 31.3812 106.161 32.0567 106.161 33.0186C106.161 34.4117 107.603 35.2552 109.572 35.2552C111.24 35.2552 112.579 34.7094 113.403 33.8315C114.09 33.0873 114.51 32.1102 114.827 30.7018L115.937 25.7896C116.796 25.1865 117.815 25.0186 117.99 25.0186C118.254 25.0186 118.395 25.1331 118.395 25.3506C118.395 25.4499 118.36 25.6331 118.326 25.7972L117.765 28.2819C117.658 28.7781 117.555 29.259 117.555 29.6751C117.555 31.0987 118.647 31.8964 120.192 31.8964C121.459 31.8964 122.512 31.2819 123.092 30.5224L123.199 31.7476H125.748L126.099 30.1903H124.958L126.401 23.7132H124.081L123.256 27.343C123.027 28.3544 122.818 29.0147 122.466 29.4957C122.115 29.9766 121.604 30.2743 121.009 30.2743C120.673 30.2743 120.394 30.1751 120.219 30.0071C120.043 29.843 119.955 29.6102 119.955 29.3125C119.955 29.0796 120.009 28.7476 120.097 28.3506L120.658 25.8163C120.745 25.4499 120.78 25.1522 120.78 24.9231C120.78 23.9613 120.093 23.5644 119.162 23.5644C118.673 23.5644 117.471 23.7285 116.216 24.6063L116.418 23.7132H114.235C114.235 23.7132 113.468 23.5644 112.972 23.5644C109.843 23.5644 107.435 26.0987 107.435 29.0147C107.435 29.2018 107.45 29.3812 107.481 29.5567C106.596 30.2514 105.458 30.4384 105.275 30.4384C105.012 30.4384 104.871 30.3239 104.871 30.1063C104.871 30.0071 104.905 29.8239 104.94 29.6598L105.5 27.175C105.607 26.6789 105.71 26.198 105.71 25.7819C105.71 24.3583 104.619 23.5605 103.073 23.5605C101.807 23.5605 100.753 24.1751 100.173 24.9346L100.444 23.7094H97.5212L97.1701 25.2667H98.3111L97.4792 29.0033C96.6092 30.1445 94.9645 30.427 94.7393 30.427C94.5295 30.427 94.3997 30.3506 94.3577 30.2094C94.3501 30.1789 94.3425 30.1483 94.3425 30.1102C94.3425 30.0109 94.3768 29.8277 94.4112 29.6636L95.7697 23.7094L93.3198 23.698C93.3198 23.698 93.2664 23.6903 93.2396 23.6827C93.0298 23.6521 92.8123 23.6331 92.6024 23.6331C89.4046 23.6331 86.8555 26.0682 86.8555 29.0987C86.8555 30.8697 87.9278 31.9651 89.6831 31.9651" fill="#333E48"/>
<path fill-rule="evenodd" clip-rule="evenodd" d="M83.0788 35.8477C79.3353 35.8477 76.9961 39.508 76.9961 42.8553C76.9961 44.0996 77.4006 45.0767 78.1562 45.7217C78.8583 46.3171 79.9306 46.6339 81.125 46.6339C82.4797 46.6339 83.8496 46.2179 84.8342 45.6568L85.2387 43.8515C84.2541 44.4125 82.8995 44.8935 81.7241 44.8935C80.2473 44.8935 79.5108 44.1301 79.5108 42.7408C79.5108 40.7026 80.8312 37.5576 82.8498 37.5576C83.7657 37.5576 84.0443 38.1377 84.0443 38.8667C84.0443 39.0003 84.0252 39.1988 84.0099 39.3324L86.5781 39.34C86.5933 39.2255 86.5781 38.8858 86.5781 38.737C86.5781 36.7675 85.0135 35.8553 83.0788 35.8553" fill="#333E48"/>
<path fill-rule="evenodd" clip-rule="evenodd" d="M92.043 44.3923C91.6576 44.8541 91.1654 45.1709 90.5853 45.1709C89.6542 45.1709 89.2841 44.5564 89.2841 43.6976C89.2841 42.7702 89.6542 41.3961 90.3754 40.5335C90.7609 40.0717 91.2722 39.7549 91.8522 39.7549C92.7833 39.7549 93.1344 40.3694 93.1344 41.2282C93.1344 42.1557 92.7643 43.5297 92.043 44.3923ZM92.1308 38.2969C90.9021 38.2969 89.8107 38.6786 88.9826 39.3236C87.6814 40.316 86.9258 41.9572 86.9258 43.6976C86.9258 45.6366 88.3339 46.6289 90.2839 46.6289C91.5126 46.6289 92.604 46.2473 93.4321 45.6022C94.7333 44.6099 95.4889 42.9534 95.4889 41.2129C95.4889 39.274 94.0846 38.2969 92.1308 38.2969Z" fill="#333E48"/>
<path fill-rule="evenodd" clip-rule="evenodd" d="M115.454 45.2212C115.191 45.2212 114.874 45.1869 114.679 45.122L115.858 39.8891C116.106 39.8052 116.614 39.725 116.95 39.725C117.423 39.725 117.812 39.8243 118.076 40.0571C118.373 40.3243 118.533 40.7212 118.533 41.2479C118.533 43.1678 117.339 45.225 115.458 45.225M117.48 38.3014C117.057 38.3014 116.515 38.3662 116.198 38.4502L116.496 37.0762H114.164L113.721 39.0953C113.336 39.2441 112.683 39.5609 112.313 39.7899L111.962 41.3319C112.367 41.0647 113.054 40.7021 113.386 40.5685L112.649 43.8357C111.764 44.9044 110.199 45.1716 109.978 45.1716C109.89 45.1716 109.821 45.1563 109.764 45.1296C109.65 45.08 109.589 44.9846 109.589 44.8395C109.589 44.7403 109.623 44.5571 109.657 44.393L110.218 41.9082C110.325 41.4121 110.413 40.9311 110.413 40.5151C110.413 39.1067 109.413 38.2975 107.849 38.2975C106.669 38.2975 105.635 38.8777 105.036 39.6067C104.666 38.7632 103.823 38.2975 102.663 38.2975C101.434 38.2975 100.377 38.9121 99.7968 39.6716L100.053 38.4464H97.16L96.8089 40.0037H97.9499L96.4922 46.4808H98.8123L99.6404 42.8548C99.8694 41.8433 100.079 41.183 100.43 40.7021C100.762 40.2403 101.258 39.9235 101.838 39.9235C102.506 39.9235 102.857 40.2212 102.857 40.8853C102.857 41.1182 102.804 41.4464 102.716 41.8472L101.678 46.4846H103.998L104.861 42.6754C105.071 41.7632 105.3 41.1334 105.616 40.7059C105.948 40.2441 106.444 39.9273 107.021 39.9273C107.688 39.9273 108.039 40.225 108.039 40.8891C108.039 41.122 107.971 41.4502 107.883 41.851L107.303 44.4502C107.234 44.7823 107.196 45.0647 107.196 45.2785C107.196 45.5991 107.28 45.851 107.417 46.0495C107.688 46.454 108.196 46.6372 108.818 46.6372H108.822C108.826 46.6372 108.829 46.6372 108.829 46.6372C108.845 46.6372 108.856 46.6372 108.871 46.6372C108.951 46.6372 109.043 46.6296 109.15 46.6182C109.249 46.6067 109.344 46.5953 109.444 46.5762C109.474 46.5724 109.509 46.5647 109.539 46.5571C109.615 46.5418 109.688 46.5266 109.76 46.5075C110.482 46.3357 111.432 45.9502 112.363 45.1182L111.264 50.0075H113.584L114.385 46.5037C114.79 46.5876 115.297 46.6372 115.702 46.6372C118.656 46.6372 120.888 44.2174 120.888 41.1563C120.888 40.2441 120.571 39.5647 120.045 39.1029C119.445 38.5724 118.549 38.309 117.476 38.309" fill="#333E48"/>
<path fill-rule="evenodd" clip-rule="evenodd" d="M147.058 46.4609C146.883 47.1059 146.566 47.6861 146.108 48.1021C145.669 48.4991 145.07 48.7166 144.421 48.7166C143.612 48.7166 142.945 48.3502 142.945 47.7052C142.945 46.8769 143.807 46.6785 145.07 46.5449C145.967 46.4456 146.757 46.2472 147.215 45.8655L147.054 46.4609H147.058ZM127.249 43.1479C127.108 43.7434 126.917 44.2586 126.601 44.6059C126.284 44.938 125.879 45.1365 125.318 45.1365C124.529 45.1365 124.124 44.6403 124.124 43.6937C124.124 42.0029 125.425 39.6861 127.463 39.6861C127.673 39.6861 127.868 39.7357 128.009 39.8197L127.253 43.1479H127.249ZM152.252 43.7662C152.252 43.7662 151.802 43.4609 150.702 43.5792C150.512 43.5983 150.29 43.6441 150.05 43.7052L151.241 38.4456H148.92L148.092 42.0716C147.863 43.083 147.654 43.7434 147.302 44.2243C146.951 44.7052 146.44 45.0029 145.845 45.0029C145.513 45.0029 145.23 44.9037 145.055 44.7395C144.879 44.5754 144.792 44.3426 144.792 44.0449C144.792 43.8121 144.845 43.4838 144.933 43.083L145.971 38.4456H143.651L142.613 43.0182C142.517 43.4495 142.429 43.8884 142.41 44.2739C141.525 44.98 140.373 45.1708 140.186 45.1708C139.922 45.1708 139.781 45.0563 139.781 44.8388C139.781 44.7395 139.815 44.5563 139.85 44.3922L140.411 41.9075C140.518 41.4113 140.621 40.9304 140.621 40.5143C140.621 39.0907 139.529 38.293 137.984 38.293C136.717 38.293 135.664 38.9075 135.084 39.667L135.355 38.4418H132.431L132.08 39.9991H133.225L132.416 43.6327C131.55 44.8006 129.879 45.083 129.653 45.083C129.444 45.083 129.314 45.0067 129.272 44.8655C129.264 44.835 129.257 44.8044 129.257 44.7663C129.257 44.667 129.291 44.4838 129.325 44.3197L130.684 38.3655L128.234 38.354C128.234 38.354 128.18 38.3464 128.154 38.3426C127.944 38.3121 127.726 38.293 127.516 38.293C124.319 38.293 121.77 40.7281 121.77 43.7586C121.77 45.5296 122.842 46.625 124.597 46.625C125.616 46.625 126.475 46.251 126.978 45.7357C127.139 46.1479 127.486 46.3846 127.948 46.4838C128.005 46.4991 128.062 46.5067 128.119 46.5182C128.146 46.522 128.177 46.5258 128.207 46.5258C128.303 46.5372 128.394 46.5563 128.497 46.5563C128.871 46.5563 129.23 46.4876 129.558 46.3808C130.283 46.1899 131.222 45.7777 132.126 44.938L131.783 46.4724H134.103L134.931 42.8426C135.16 41.8311 135.37 41.1708 135.721 40.6899C136.072 40.209 136.583 39.9113 137.179 39.9113C137.514 39.9113 137.793 40.0105 137.968 40.1785C138.144 40.3426 138.232 40.5754 138.232 40.8731C138.232 41.1059 138.178 41.438 138.091 41.835L137.53 44.3693C137.442 44.7357 137.408 45.0334 137.408 45.2624C137.408 46.2243 138.094 46.6212 139.026 46.6212C139.586 46.6212 141.09 46.4075 142.532 45.1327C142.635 45.4037 142.788 45.6403 142.983 45.8426C141.628 46.1594 140.995 46.8197 140.995 47.7663C140.995 49.1594 142.452 49.9838 144.406 49.9838C146.077 49.9838 147.394 49.4533 148.237 48.5601C148.924 47.8311 149.344 46.8388 149.661 45.4304L149.821 44.7204C150.466 44.5296 150.993 44.7319 151.42 44.9609C151.466 44.9914 151.515 45.0182 151.565 45.0411C151.569 45.0411 151.573 45.0449 151.576 45.0487C151.634 45.0716 151.695 45.0907 151.763 45.0983C152.183 45.1556 152.569 44.8808 152.626 44.4876C152.672 44.1861 152.511 43.9037 152.248 43.7624L152.252 43.7662Z" fill="#333E48"/>
<path fill-rule="evenodd" clip-rule="evenodd" d="M127.738 17.0274L128.566 13.4014C128.795 12.39 129.005 11.7297 129.356 11.2487C129.707 10.7678 130.219 10.4701 130.814 10.4701C131.146 10.4701 131.428 10.5694 131.604 10.7335C131.779 10.8976 131.867 11.1304 131.867 11.4281C131.867 11.661 131.814 11.9892 131.726 12.39L131.165 14.9243C131.077 15.2869 131.043 15.5884 131.043 15.8174C131.043 16.7793 131.73 17.1762 132.661 17.1762C133.271 17.1762 134.737 16.8862 135.786 15.7526C135.786 15.7526 135.786 15.7526 135.79 15.7487C135.798 15.7411 135.805 15.7335 135.809 15.7258C135.931 15.5961 136.011 15.4281 136.011 15.2411C136.011 14.8442 135.668 14.5197 135.248 14.5197C134.95 14.5197 134.699 14.68 134.573 14.9129C134.309 15.432 134.054 15.7182 133.825 15.7182C133.561 15.7182 133.42 15.6037 133.42 15.3862C133.42 15.2869 133.455 15.1037 133.489 14.9396L134.05 12.4549C134.157 11.9587 134.26 11.4778 134.26 11.0617C134.26 9.63806 133.187 8.84035 131.642 8.84035C130.772 8.84035 129.959 9.18768 129.448 9.66096L130.337 5.69531H126.876L126.525 7.25256H127.605L125.422 17.0274H127.742H127.738Z" fill="#333E48"/>
</g>
<defs>
<clipPath id="clip0_342_16730">
<rect width="155" height="50" fill="white"/>
</clipPath>
</defs>
</svg>
